<?xml version="1.0" standalone="no"?>
<!DOCTYPE svg PUBLIC "-//W3C//DTD SVG 20010904//EN"
 "http://www.w3.org/TR/2001/REC-SVG-20010904/DTD/svg10.dtd">
<svg version="1.0" xmlns="http://www.w3.org/2000/svg"
 width="434.000000pt" height="434.000000pt" viewBox="0 0 434.000000 434.000000"
 preserveAspectRatio="xMidYMid meet">
<metadata>
Created by potrace 1.11, written by Peter Selinger 2001-2013
</metadata>
<g transform="translate(0.000000,434.000000) scale(0.100000,-0.100000)"
fill="#000000" stroke="none">
<path d="M0 2165 l0 -2025 2170 0 2170 0 0 2025 0 2025 -2170 0 -2170 0 0
-2025z m2517 1783 c-143 -141 -209 -293 -228 -528 -10 -134 -10 -146 31 -747
6 -78 10 -219 10 -312 l0 -171 58 -68 c31 -38 93 -111 136 -163 282 -333 289
-342 300 -326 8 9 9 45 4 103 -16 209 -21 639 -9 724 35 236 129 400 320 552
128 103 207 131 125 46 -152 -159 -206 -282 -225 -518 -10 -118 -8 -185 15
-530 27 -403 36 -920 17 -920 -5 0 -54 53 -108 117 -99 118 -194 231 -383 454
-210 249 -271 319 -281 319 -6 0 -8 -8 -5 -17 9 -33 21 -357 21 -593 0 -301
-16 -384 -105 -550 -57 -105 -252 -286 -378 -349 -60 -30 -73 -22 -22 14 58
40 133 125 180 204 107 180 127 374 90 852 -20 268 -23 321 -24 527 l-1 214
-240 284 c-131 156 -244 283 -250 281 -6 -3 -8 -50 -5 -138 3 -74 5 -264 5
-424 0 -330 -7 -380 -75 -520 -67 -139 -149 -231 -319 -353 -48 -35 -130 -77
-137 -70 -2 2 24 26 58 54 85 67 178 205 212 314 48 151 56 325 31 654 -23
308 -40 982 -25 1006 12 19 -30 64 365 -405 343 -408 393 -465 408 -465 5 0 7
17 4 38 -11 67 -22 373 -22 592 0 257 12 325 85 475 72 149 183 268 335 359
83 51 95 45 32 -16z"/>
</g>
</svg>
